<svg xmlns="http://www.w3.org/2000/svg" xmlns:xlink="http://www.w3.org/1999/xlink" width="100" zoomAndPan="magnify" viewBox="0 0 75 37.5" height="50" preserveAspectRatio="xMidYMid meet" version="1.0"><defs><g/><clipPath id="17971be2ba"><path d="M 0.492188 0 L 74.503906 0 L 74.503906 37.007812 L 0.492188 37.007812 Z M 0.492188 0 " clip-rule="nonzero"/></clipPath><clipPath id="045116501f"><path d="M 0.492188 15.71875 L 74.503906 15.71875 L 74.503906 21.410156 L 0.492188 21.410156 Z M 0.492188 15.71875 " clip-rule="nonzero"/></clipPath></defs><g clip-path="url(#17971be2ba)"><path fill="#ffffff" d="M 0.492188 0 L 74.507812 0 L 74.507812 37.007812 L 0.492188 37.007812 Z M 0.492188 0 " fill-opacity="1" fill-rule="nonzero"/><path fill="#ffffff" d="M 0.492188 0 L 74.507812 0 L 74.507812 37.007812 L 0.492188 37.007812 Z M 0.492188 0 " fill-opacity="1" fill-rule="nonzero"/></g><g fill="#304945" fill-opacity="1"><g transform="translate(11.448992, 27.229257)"><g><path d="M 1.90625 0 L 1.90625 -17.734375 L 3.5 -17.734375 L 3.5 -9.546875 L 12.109375 -9.546875 L 12.109375 -17.734375 L 13.703125 -17.734375 L 13.703125 0 L 12.109375 0 L 12.109375 -8.03125 L 3.5 -8.03125 L 3.5 0 Z M 1.90625 0 "/></g></g></g><g fill="#304945" fill-opacity="1"><g transform="translate(27.059016, 27.229257)"><g/></g></g><g fill="#304945" fill-opacity="1"><g transform="translate(34.635958, 27.229257)"><g><path d="M -0.8125 5.296875 C 0.351562 4.203125 1.179688 2.96875 1.671875 1.59375 C 1.859375 1.070312 1.953125 0.539062 1.953125 0 L 1.953125 -17.734375 L 3.671875 -17.734375 L 3.671875 0 C 3.671875 0.0507812 3.671875 0.101562 3.671875 0.15625 C 3.671875 2.007812 2.8125 3.734375 1.09375 5.328125 C 0.664062 5.710938 0.3125 6.03125 0.03125 6.28125 Z M -0.8125 5.296875 "/></g></g></g><g fill="#304945" fill-opacity="1"><g transform="translate(40.363012, 27.229257)"><g/></g></g><g fill="#304945" fill-opacity="1"><g transform="translate(47.939954, 27.229257)"><g><path d="M 1.90625 0 L 1.90625 -17.734375 L 3.5 -17.734375 L 3.5 -9.546875 L 12.109375 -9.546875 L 12.109375 -17.734375 L 13.703125 -17.734375 L 13.703125 0 L 12.109375 0 L 12.109375 -8.03125 L 3.5 -8.03125 L 3.5 0 Z M 1.90625 0 "/></g></g></g><g clip-path="url(#045116501f)"><path fill="#ffffff" d="M -5.699219 15.71875 L 80.699219 15.71875 L 80.699219 21.410156 L -5.699219 21.410156 Z M -5.699219 15.71875 " fill-opacity="1" fill-rule="nonzero"/></g><g fill="#304945" fill-opacity="1"><g transform="translate(17.584349, 19.434685)"><g><path d="M 1.222656 -1.070312 L 0.472656 -1.070312 L 0.472656 -1.789062 L 0.21875 -1.789062 L 0.21875 0 L 0.472656 0 L 0.472656 -0.816406 L 1.222656 -0.816406 L 1.222656 0 L 1.480469 0 L 1.480469 -1.789062 L 1.222656 -1.789062 Z M 1.222656 -1.070312 "/></g></g></g><g fill="#304945" fill-opacity="1"><g transform="translate(21.31107, 19.434685)"><g><path d="M 1.300781 -0.253906 L 0.476562 -0.253906 L 0.476562 -0.777344 L 1.277344 -0.777344 L 1.277344 -1.035156 L 0.476562 -1.035156 L 0.476562 -1.535156 L 1.296875 -1.535156 L 1.296875 -1.789062 L 0.21875 -1.789062 L 0.21875 0 L 1.300781 0 Z M 1.300781 -0.253906 "/></g></g></g><g fill="#304945" fill-opacity="1"><g transform="translate(24.751621, 19.434685)"><g><path d="M 1.300781 -0.253906 L 0.476562 -0.253906 L 0.476562 -0.777344 L 1.277344 -0.777344 L 1.277344 -1.035156 L 0.476562 -1.035156 L 0.476562 -1.535156 L 1.296875 -1.535156 L 1.296875 -1.789062 L 0.21875 -1.789062 L 0.21875 0 L 1.300781 0 Z M 1.300781 -0.253906 "/></g></g></g><g fill="#304945" fill-opacity="1"><g transform="translate(28.192172, 19.434685)"><g/></g></g><g fill="#304945" fill-opacity="1"><g transform="translate(30.850183, 19.434685)"><g><path d="M 0.957031 -0.765625 L 0.957031 -1.785156 L 0.222656 -1.785156 L 0.222656 -1.554688 L 0.703125 -1.554688 L 0.703125 -0.765625 C 0.703125 -0.4375 0.566406 -0.226562 0.109375 -0.226562 C 0.0820312 -0.226562 0.0507812 -0.226562 0.0195312 -0.230469 L 0.0195312 0.0117188 C 0.046875 0.0117188 0.0742188 0.0117188 0.0976562 0.0117188 C 0.722656 0.0117188 0.957031 -0.261719 0.957031 -0.765625 Z M 0.957031 -0.765625 "/></g></g></g><g fill="#304945" fill-opacity="1"><g transform="translate(34.029889, 19.434685)"><g><path d="M 0.804688 -1.554688 L 1.132812 -1.554688 L 1.132812 -1.789062 L 0.21875 -1.789062 L 0.21875 -1.554688 L 0.546875 -1.554688 L 0.546875 -0.238281 L 0.21875 -0.238281 L 0.21875 0 L 1.132812 0 L 1.132812 -0.238281 L 0.804688 -0.238281 Z M 0.804688 -1.554688 "/></g></g></g><g fill="#304945" fill-opacity="1"><g transform="translate(37.404593, 19.434685)"><g><path d="M 0.21875 -1.773438 L 0.21875 0 L 0.472656 0 L 0.472656 -1.238281 L 1.328125 0 L 1.53125 0 L 1.53125 -1.773438 L 1.277344 -1.773438 L 1.277344 -0.523438 L 0.414062 -1.773438 Z M 0.21875 -1.773438 "/></g></g></g><g fill="#304945" fill-opacity="1"><g transform="translate(41.181964, 19.434685)"><g/></g></g><g fill="#304945" fill-opacity="1"><g transform="translate(43.839977, 19.434685)"><g><path d="M 1.222656 -1.070312 L 0.472656 -1.070312 L 0.472656 -1.789062 L 0.21875 -1.789062 L 0.21875 0 L 0.472656 0 L 0.472656 -0.816406 L 1.222656 -0.816406 L 1.222656 0 L 1.480469 0 L 1.480469 -1.789062 L 1.222656 -1.789062 Z M 1.222656 -1.070312 "/></g></g></g><g fill="#304945" fill-opacity="1"><g transform="translate(47.566699, 19.434685)"><g><path d="M 0.0898438 -0.886719 C 0.0898438 -0.375 0.496094 0.03125 1.007812 0.03125 C 1.519531 0.03125 1.929688 -0.375 1.929688 -0.886719 C 1.929688 -1.398438 1.519531 -1.808594 1.007812 -1.808594 C 0.496094 -1.808594 0.0898438 -1.398438 0.0898438 -0.886719 Z M 0.351562 -0.886719 C 0.351562 -1.25 0.644531 -1.546875 1.007812 -1.546875 C 1.371094 -1.546875 1.667969 -1.25 1.667969 -0.886719 C 1.667969 -0.523438 1.371094 -0.230469 1.007812 -0.230469 C 0.644531 -0.230469 0.351562 -0.523438 0.351562 -0.886719 Z M 0.351562 -0.886719 "/></g></g></g><g fill="#304945" fill-opacity="1"><g transform="translate(51.63024, 19.434685)"><g><path d="M 0.21875 -1.773438 L 0.21875 0 L 0.472656 0 L 0.472656 -1.238281 L 1.328125 0 L 1.53125 0 L 1.53125 -1.773438 L 1.277344 -1.773438 L 1.277344 -0.523438 L 0.414062 -1.773438 Z M 0.21875 -1.773438 "/></g></g></g><g fill="#304945" fill-opacity="1"><g transform="translate(55.407611, 19.434685)"><g><path d="M 1.578125 -1.148438 L 1.855469 -1.148438 C 1.761719 -1.632812 1.34375 -1.800781 0.996094 -1.800781 C 0.496094 -1.800781 0.105469 -1.417969 0.105469 -0.882812 C 0.105469 -0.351562 0.488281 0.03125 0.996094 0.03125 C 1.324219 0.03125 1.695312 -0.210938 1.820312 -0.554688 L 1.820312 -0.550781 C 1.84375 -0.613281 1.855469 -0.714844 1.871094 -0.867188 L 0.894531 -0.867188 L 0.894531 -0.605469 L 1.5625 -0.605469 C 1.457031 -0.34375 1.21875 -0.21875 0.996094 -0.21875 C 0.640625 -0.21875 0.367188 -0.5 0.367188 -0.882812 C 0.367188 -1.265625 0.640625 -1.539062 0.996094 -1.539062 C 1.226562 -1.539062 1.503906 -1.441406 1.578125 -1.148438 Z M 1.578125 -1.148438 "/></g></g></g></svg>