<svg xmlns="http://www.w3.org/2000/svg" xmlns:xlink="http://www.w3.org/1999/xlink" width="100" zoomAndPan="magnify" viewBox="0 0 75 37.5" height="50" preserveAspectRatio="xMidYMid meet" version="1.0"><defs><g/><clipPath id="9314f0e68d"><path d="M 5.597656 27.359375 L 32.765625 27.359375 L 32.765625 30.382812 L 5.597656 30.382812 Z M 5.597656 27.359375 " clip-rule="nonzero"/></clipPath><clipPath id="4bffcfb946"><path d="M 41.109375 5.949219 L 68.28125 5.949219 L 68.28125 8.972656 L 41.109375 8.972656 Z M 41.109375 5.949219 " clip-rule="nonzero"/></clipPath></defs><g clip-path="url(#9314f0e68d)"><path fill="#000000" d="M 5.597656 27.359375 L 32.765625 27.359375 L 32.765625 30.382812 L 5.597656 30.382812 Z M 5.597656 27.359375 " fill-opacity="1" fill-rule="nonzero"/></g><g clip-path="url(#4bffcfb946)"><path fill="#000000" d="M 41.109375 5.949219 L 68.277344 5.949219 L 68.277344 8.972656 L 41.109375 8.972656 Z M 41.109375 5.949219 " fill-opacity="1" fill-rule="nonzero"/></g><g fill="#000000" fill-opacity="1"><g transform="translate(3.388959, 21.963388)"><g><path d="M 9.070312 0 L 11.863281 0 L 11.863281 -12.28125 L 9.070312 -12.28125 L 9.070312 -7.5625 L 4.265625 -7.5625 L 4.265625 -12.28125 L 1.472656 -12.28125 L 1.472656 0 L 4.265625 0 L 4.265625 -4.949219 L 9.070312 -4.949219 Z M 9.070312 0 "/></g></g></g><g fill="#000000" fill-opacity="1"><g transform="translate(20.356267, 21.963388)"><g><path d="M 7.300781 0.246094 C 11.140625 0.246094 13.863281 -2.386719 13.863281 -6.140625 C 13.863281 -9.894531 11.140625 -12.527344 7.300781 -12.527344 C 3.457031 -12.527344 0.753906 -9.894531 0.753906 -6.140625 C 0.753906 -2.386719 3.457031 0.246094 7.300781 0.246094 Z M 3.597656 -6.140625 C 3.597656 -8.351562 5.125 -9.878906 7.300781 -9.878906 C 9.492188 -9.878906 11 -8.351562 11 -6.140625 C 11 -3.929688 9.492188 -2.402344 7.300781 -2.402344 C 5.125 -2.402344 3.597656 -3.929688 3.597656 -6.140625 Z M 3.597656 -6.140625 "/></g></g></g><g fill="#000000" fill-opacity="1"><g transform="translate(40.148853, 26.065344)"><g><path d="M 1.472656 0 L 4.246094 0 L 4.246094 -7.527344 L 9.667969 0 L 12.035156 0 L 12.035156 -12.28125 L 9.265625 -12.28125 L 9.265625 -4.808594 L 3.84375 -12.28125 L 1.472656 -12.28125 Z M 1.472656 0 "/></g></g></g><g fill="#000000" fill-opacity="1"><g transform="translate(57.29162, 26.065344)"><g><path d="M 7.195312 0.246094 C 11.246094 0.246094 13.863281 -2.753906 13.582031 -6.964844 L 6.648438 -6.964844 L 6.648438 -4.808594 L 10.632812 -4.808594 C 10.28125 -3.316406 9.019531 -2.316406 7.230469 -2.316406 C 4.984375 -2.316406 3.542969 -3.929688 3.542969 -6.140625 C 3.542969 -8.386719 5.035156 -9.964844 7.195312 -9.964844 C 8.5625 -9.964844 9.703125 -9.335938 10.300781 -8.265625 L 13.300781 -8.265625 C 12.5625 -10.84375 10.125 -12.527344 7.140625 -12.527344 C 3.402344 -12.527344 0.753906 -9.878906 0.753906 -6.140625 C 0.753906 -2.386719 3.421875 0.246094 7.195312 0.246094 Z M 7.195312 0.246094 "/></g></g></g></svg>